# xmcd CD database file
#
# Track frame offsets:
#	150
#	17345
#	32535
#	53135
#	68275
#	84862
#	99679
#	119659
#	134861
#	157192
#	176668
#	196416
#	212800
#	227449
#	247686
#	265291
#	279779
#
# Disc length: 3908 seconds
#
# Revision: 3
# Processed by: cddbd v1.5.1PL0 Copyright (c) Steve Scherf et al.
# Submitted via: CDex 1.50
#
DISCID=e00f4211
DTITLE=許志安 - On Hits
DYEAR=2002
DGENRE=Blues
TTITLE0=女人之苦
TTITLE1=天下之大
TTITLE2=活在當下
TTITLE3=迷魂索
TTITLE4=搖籃
TTITLE5=爛泥
TTITLE6=昨遲人
TTITLE7=我想高興的
TTITLE8=及時趕到
TTITLE9=讓愛
TTITLE10=羅馬
TTITLE11=徒然
TTITLE12=阿拉丁神燈
TTITLE13=我怕我會愛上你
TTITLE14=孤家寡人
TTITLE15=罪人
TTITLE16=Crazy Taxi
EXTD=YEAR: 2002
EXTT0=
EXTT1=
EXTT2=
EXTT3=
EXTT4=
EXTT5=
EXTT6=
EXTT7=
EXTT8=
EXTT9=
EXTT10=
EXTT11=
EXTT12=
EXTT13=
EXTT14=
EXTT15=
EXTT16=
PLAYORDER=
